<svg aria-hidden="true" style="width:0;height:0;position:absolute;overflow:hidden" xmlns="http://www.w3.org/2000/svg"><defs><symbol id="icon-vscode" viewBox="0 0 32 32"><path d="M.304 11.159s-.779-.568.156-1.326l2.179-1.97s.624-.663 1.283-.085l20.109 15.389v7.379s-.01 1.159-1.481 1.031L.305 11.159z"/><path d="M5.487 15.916.304 20.679s-.533.401 0 1.116l2.406 2.212s.572.62 1.416-.085l5.495-4.211-4.134-3.795zM14.587 15.955l9.505-7.337-.062-7.34S23.624-.324 22.27.51L9.621 12.147l4.965 3.808z"/><path d="M22.549 31.587c.552.571 1.221.384 1.221.384l7.408-3.69c.948-.653.815-1.464.815-1.464V4.784c0-.968-.981-1.303-.981-1.303L24.591.353c-1.403-.876-2.322.158-2.322.158s1.182-.86 1.76.768v29.133c0 .2-.042.397-.127.574-.169.345-.536.666-1.416.532l.062.069z"/></symbol><symbol id="icon-css" viewBox="0 0 32 32"><path d="M29.028 0H2.971c-.624 0-1.092.528-1.037 1.152l2.38 26.67c.055.624.595 1.276 1.2 1.445l9.382 2.606c.604.167 1.592.169 2.197.002l9.394-2.602c.605-.168 1.145-.815 1.2-1.44l2.381-26.682a1.04 1.04 0 0 0-1.039-1.152zm-4.519 9.627c0 .004-.004.007-.008.008s-.008-.001-.01-.005l-7.351 3.012c-.105.043-.164.154-.143.265s.119.191.232.191h5.718a1.071 1.071 0 0 1 1.066 1.186l-.893 8.381c-.044.411-.32.76-.71.898l-6.069 2.135a1.071 1.071 0 0 1-.707.002l-6.04-2.092a1.072 1.072 0 0 1-.715-.899l-.405-3.795a.707.707 0 0 1 .702-.781h1.681c.361 0 .664.272.702.631l.248 2.333 4.182 1.454 4.202-1.467.514-4.838H8.825a.706.706 0 0 1-.702-.629l-.226-2.051a.704.704 0 0 1 .433-.73l7.603-3.135c.086-.036.135-.127.117-.219s-.098-.157-.191-.157H7.854a.47.47 0 0 1-.468-.422l-.232-2.204a.47.47 0 0 1 .468-.52h16.75a.47.47 0 0 1 .468.524l-.332 2.925z"/></symbol><symbol id="icon-figma" viewBox="0 0 32 32"><path d="M16 16a5.333 5.333 0 1 1 10.666 0A5.333 5.333 0 1 1 16 16zM5.333 26.667a5.333 5.333 0 0 1 5.333-5.333h5.333v5.333a5.333 5.333 0 1 1-10.666 0zM16 0v10.667h5.333a5.333 5.333 0 1 0 0-10.666H16zM5.333 5.333a5.333 5.333 0 0 0 5.333 5.333h5.333V-.001h-5.333a5.333 5.333 0 0 0-5.333 5.333zm0 10.667a5.333 5.333 0 0 0 5.333 5.333h5.333V10.666h-5.333a5.333 5.333 0 0 0-5.333 5.333z"/></symbol><symbol id="icon-git" viewBox="0 0 32 32"><path d="M28.83 14.812 17.187 3.169a1.717 1.717 0 0 0-2.429 0l-2.417 2.418 3.067 3.067a2.038 2.038 0 0 1 2.582 2.6l2.956 2.956a2.044 2.044 0 1 1-1.224 1.153l-2.757-2.757v7.254a2.044 2.044 0 1 1-1.681-.06v-7.321a2.044 2.044 0 0 1-1.109-2.68l-3.023-3.024-7.984 7.983a1.719 1.719 0 0 0 0 2.429L14.811 28.83c.67.67 1.758.67 2.429 0l11.589-11.589a1.717 1.717 0 0 0 0-2.429z"/></symbol><symbol id="icon-github" viewBox="0 0 32 32"><path d="M16 .396c-8.839 0-16 7.167-16 16 0 7.073 4.584 13.068 10.937 15.183.803.151 1.093-.344 1.093-.772 0-.38-.009-1.385-.015-2.719-4.453.964-5.391-2.151-5.391-2.151-.729-1.844-1.781-2.339-1.781-2.339-1.448-.989.115-.968.115-.968 1.604.109 2.448 1.645 2.448 1.645 1.427 2.448 3.744 1.74 4.661 1.328.14-1.031.557-1.74 1.011-2.135-3.552-.401-7.287-1.776-7.287-7.907 0-1.751.62-3.177 1.645-4.297-.177-.401-.719-2.031.141-4.235 0 0 1.339-.427 4.4 1.641a15.436 15.436 0 0 1 4-.541c1.36.009 2.719.187 4 .541 3.043-2.068 4.381-1.641 4.381-1.641.859 2.204.317 3.833.161 4.235 1.015 1.12 1.635 2.547 1.635 4.297 0 6.145-3.74 7.5-7.296 7.891.556.479 1.077 1.464 1.077 2.959 0 2.14-.02 3.864-.02 4.385 0 .416.28.916 1.104.755 6.4-2.093 10.979-8.093 10.979-15.156 0-8.833-7.161-16-16-16z"/></symbol><symbol id="icon-html" viewBox="0 0 32 32"><path d="M2.39 0a.482.482 0 0 0-.487.533l2.479 27.811a.832.832 0 0 0 .563.676l10.521 2.921c.283.079.747.079 1.031 0l10.553-2.926a.834.834 0 0 0 .563-.675L30.096.533A.482.482 0 0 0 29.609 0H2.389zm22.427 6.378-.09 1.008-.065.73-.084.931c-.02.219-.038.398-.042.398H11.524a.482.482 0 0 0-.487.533l.229 2.562a.597.597 0 0 0 .582.533H23.741c.262 0 .457.214.433.475l-.091 1.008-.737 8.259-.074.832c-.014.165-.258.363-.542.442l-6.217 1.724-.523.145c-.004.001-.24-.063-.523-.141L9.243 24.09a.834.834 0 0 1-.563-.676l-.401-4.497a.482.482 0 0 1 .487-.533h2.484c.294 0 .556.24.582.533l.157 1.76c.026.293.28.595.564.672l2.911.786.518.139.518-.14 2.916-.788a.826.826 0 0 0 .564-.672l.316-3.527a.482.482 0 0 0-.487-.533H8.605a.597.597 0 0 1-.582-.533l-.776-8.695-.09-1.008c-.023-.262.198-.475.492-.475H24.319c.294 0 .516.214.492.475z"/></symbol><symbol id="icon-js" viewBox="0 0 32 32"><path d="M28.975 1.488a.642.642 0 0 0-.472-.208H3.497a.64.64 0 0 0-.637.697L5.113 27.21a.641.641 0 0 0 .462.559l10.246 2.927a.648.648 0 0 0 .35 0l10.255-2.927a.641.641 0 0 0 .462-.559L29.14 1.977a.641.641 0 0 0-.165-.489zM7.68 18.563l4.48 1.243V7.041h2.56v16.64l-7.04-1.953v-3.165zm16.675-4.483-.675 7.84-6.4 1.76v-2.945l4.32-1.187.16-2.4-4.48.772V7.04h7.68l-.221 2.56H19.84v5.12l4.515-.64z"/></symbol><symbol id="icon-sass" viewBox="0 0 32 32"><path d="M16 0c8.836 0 16 7.164 16 16s-7.164 16-16 16S0 24.836 0 16 7.164 0 16 0zm-3.18 21.331c.233.86.208 1.664-.032 2.389l-.087.24c-.032.081-.069.16-.104.235a4.492 4.492 0 0 1-.74 1.08c-.931 1.012-2.229 1.396-2.787 1.073-.6-.349-.301-1.78.779-2.92 1.161-1.224 2.827-2.012 2.827-2.012v-.004l.144-.081zM26.035 6.849c-.723-2.844-5.436-3.779-9.896-2.193-2.652.943-5.525 2.424-7.591 4.356-2.457 2.295-2.848 4.295-2.687 5.131.569 2.948 4.609 4.876 6.271 6.307v.008c-.489.24-4.075 2.039-4.915 3.9-.9 1.96.14 3.361.82 3.54 2.1.581 4.26-.48 5.42-2.199 1.12-1.681 1.021-3.841.539-4.901.661-.18 1.44-.26 2.44-.139 2.801.32 3.361 2.08 3.24 2.8-.12.719-.697 1.139-.899 1.259-.2.121-.26.16-.241.241.02.12.121.12.28.1.22-.04 1.461-.6 1.521-1.961.06-1.72-1.581-3.639-4.5-3.6-1.2.021-1.961.121-2.5.341a.479.479 0 0 0-.14-.14c-1.8-1.94-5.14-3.3-5-5.88.04-.94.38-3.419 6.4-6.419 4.94-2.461 8.881-1.78 9.561-.28.977 2.139-2.101 6.12-7.241 6.699-1.96.22-2.98-.539-3.241-.82-.279-.3-.319-.32-.419-.259-.16.08-.06.34 0 .5.16.4.78 1.1 1.861 1.46.939.3 3.24.479 6-.6 3.099-1.199 5.519-4.54 4.819-7.34l.097.089z"/></symbol></defs></svg>