<svg aria-hidden="true" style="position: absolute; width: 0; height: 0; overflow: hidden;" version="1.1" xmlns="http://www.w3.org/2000/svg" xmlns:xlink="http://www.w3.org/1999/xlink">
<defs>
<symbol id="icon-vscode" viewBox="0 0 32 32">
<path d="M0.304 11.159c0 0-0.779-0.568 0.156-1.326l2.179-1.97c0 0 0.624-0.663 1.283-0.085l20.109 15.389v7.379c0 0-0.010 1.159-1.481 1.031l-22.245-20.418z"></path>
<path d="M5.487 15.916l-5.183 4.763c0 0-0.533 0.401 0 1.116l2.406 2.212c0 0 0.572 0.62 1.416-0.085l5.495-4.211-4.134-3.795z"></path>
<path d="M14.587 15.955l9.505-7.337-0.062-7.34c0 0-0.406-1.602-1.76-0.768l-12.649 11.637 4.965 3.808z"></path>
<path d="M22.549 31.587c0.552 0.571 1.221 0.384 1.221 0.384l7.408-3.69c0.948-0.653 0.815-1.464 0.815-1.464v-22.033c0-0.968-0.981-1.303-0.981-1.303l-6.421-3.128c-1.403-0.876-2.322 0.158-2.322 0.158s1.182-0.86 1.76 0.768v29.133c0 0.2-0.042 0.397-0.127 0.574-0.169 0.345-0.536 0.666-1.416 0.532l0.062 0.069z"></path>
</symbol>
<symbol id="icon-css" viewBox="0 0 32 32">
<path d="M29.028 0h-26.057c-0.624 0-1.092 0.528-1.037 1.152l2.38 26.67c0.055 0.624 0.595 1.276 1.2 1.445l9.382 2.606c0.604 0.167 1.592 0.169 2.197 0.002l9.394-2.602c0.605-0.168 1.145-0.815 1.2-1.44l2.381-26.682c0.055-0.624-0.411-1.152-1.039-1.152zM24.509 9.627c-0 0.004-0.004 0.007-0.008 0.008s-0.008-0.001-0.010-0.005l-7.351 3.012c-0.105 0.043-0.164 0.154-0.143 0.265s0.119 0.191 0.232 0.191h5.718c0.304 0 0.594 0.129 0.797 0.355s0.301 0.528 0.269 0.831l-0.893 8.381c-0.044 0.411-0.32 0.76-0.71 0.898l-6.069 2.135c-0.229 0.081-0.478 0.081-0.707 0.002l-6.040-2.092c-0.392-0.136-0.671-0.486-0.715-0.899l-0.405-3.795c-0.021-0.199 0.043-0.398 0.177-0.547s0.325-0.234 0.525-0.234h1.681c0.361 0 0.664 0.272 0.702 0.631l0.248 2.333 4.182 1.454 4.202-1.467 0.514-4.838h-11.88c-0.36 0-0.663-0.271-0.702-0.629l-0.226-2.051c-0.035-0.313 0.142-0.611 0.433-0.73l7.603-3.135c0.086-0.036 0.135-0.127 0.117-0.219s-0.098-0.157-0.191-0.157h-8.005c-0.241 0-0.443-0.182-0.468-0.422l-0.232-2.204c-0.014-0.133 0.029-0.265 0.118-0.364s0.216-0.156 0.35-0.156h16.75c0.134 0 0.262 0.057 0.351 0.157s0.132 0.233 0.117 0.367l-0.332 2.925z"></path>
</symbol>
<symbol id="icon-figma" viewBox="0 0 32 32">
<path d="M16 16c0-2.946 2.388-5.333 5.333-5.333s5.333 2.388 5.333 5.333v0c0 2.946-2.388 5.333-5.333 5.333s-5.333-2.388-5.333-5.333v0zM5.333 26.667c0-2.946 2.388-5.333 5.333-5.333v0h5.333v5.333c0 2.946-2.388 5.333-5.333 5.333s-5.333-2.388-5.333-5.333v0zM16 0v10.667h5.333c2.946 0 5.333-2.388 5.333-5.333s-2.388-5.333-5.333-5.333v0h-5.333zM5.333 5.333c0 2.946 2.388 5.333 5.333 5.333v0h5.333v-10.667h-5.333c-2.946 0-5.333 2.388-5.333 5.333v0zM5.333 16c0 2.946 2.388 5.333 5.333 5.333v0h5.333v-10.667h-5.333c-2.946 0-5.333 2.388-5.333 5.333v0z"></path>
</symbol>
<symbol id="icon-git" viewBox="0 0 32 32">
<path d="M28.83 14.812l-11.643-11.643c-0.67-0.671-1.758-0.671-2.429 0l-2.417 2.418 3.067 3.067c0.713-0.241 1.53-0.079 2.098 0.489 0.571 0.572 0.731 1.396 0.484 2.111l2.956 2.956c0.715-0.247 1.54-0.087 2.111 0.485 0.798 0.798 0.798 2.091 0 2.89s-2.092 0.799-2.891 0c-0.6-0.601-0.749-1.483-0.444-2.222l-2.757-2.757v7.254c0.194 0.096 0.378 0.225 0.54 0.386 0.798 0.798 0.798 2.091 0 2.89-0.798 0.798-2.092 0.798-2.89 0-0.798-0.799-0.798-2.092 0-2.89 0.197-0.197 0.426-0.346 0.669-0.446v-7.321c-0.244-0.1-0.472-0.248-0.669-0.446-0.604-0.604-0.75-1.492-0.44-2.234l-3.023-3.024-7.984 7.983c-0.67 0.671-0.67 1.759 0 2.429l11.643 11.643c0.67 0.67 1.758 0.67 2.429 0l11.589-11.589c0.671-0.671 0.671-1.759 0-2.429z"></path>
</symbol>
<symbol id="icon-github" viewBox="0 0 32 32">
<path d="M16 0.396c-8.839 0-16 7.167-16 16 0 7.073 4.584 13.068 10.937 15.183 0.803 0.151 1.093-0.344 1.093-0.772 0-0.38-0.009-1.385-0.015-2.719-4.453 0.964-5.391-2.151-5.391-2.151-0.729-1.844-1.781-2.339-1.781-2.339-1.448-0.989 0.115-0.968 0.115-0.968 1.604 0.109 2.448 1.645 2.448 1.645 1.427 2.448 3.744 1.74 4.661 1.328 0.14-1.031 0.557-1.74 1.011-2.135-3.552-0.401-7.287-1.776-7.287-7.907 0-1.751 0.62-3.177 1.645-4.297-0.177-0.401-0.719-2.031 0.141-4.235 0 0 1.339-0.427 4.4 1.641 1.281-0.355 2.641-0.532 4-0.541 1.36 0.009 2.719 0.187 4 0.541 3.043-2.068 4.381-1.641 4.381-1.641 0.859 2.204 0.317 3.833 0.161 4.235 1.015 1.12 1.635 2.547 1.635 4.297 0 6.145-3.74 7.5-7.296 7.891 0.556 0.479 1.077 1.464 1.077 2.959 0 2.14-0.020 3.864-0.020 4.385 0 0.416 0.28 0.916 1.104 0.755 6.4-2.093 10.979-8.093 10.979-15.156 0-8.833-7.161-16-16-16z"></path>
</symbol>
<symbol id="icon-html" viewBox="0 0 32 32">
<path d="M2.39 0c-0.294 0-0.513 0.24-0.487 0.533l2.479 27.811c0.026 0.293 0.279 0.597 0.563 0.676l10.521 2.921c0.283 0.079 0.747 0.079 1.031 0l10.553-2.926c0.283-0.079 0.537-0.383 0.563-0.675l2.483-27.807c0.026-0.293-0.193-0.533-0.487-0.533h-27.22zM24.817 6.378c-0.023 0.261-0.064 0.715-0.090 1.008l-0.065 0.73c-0.026 0.293-0.064 0.712-0.084 0.931s-0.038 0.398-0.042 0.398c-0.003 0-0.247 0-0.541 0h-7.461c-0.294 0-0.537 0-0.54 0s-0.246 0-0.541 0h-3.929c-0.294 0-0.513 0.24-0.487 0.533l0.229 2.562c0.026 0.293 0.288 0.533 0.582 0.533h3.605c0.294 0 0.537 0 0.541 0s0.246 0 0.54 0h6.196c0.294 0 0.749 0 1.011 0s0.457 0.214 0.433 0.475c-0.024 0.261-0.065 0.715-0.091 1.008l-0.737 8.259c-0.026 0.293-0.060 0.667-0.074 0.832s-0.258 0.363-0.542 0.442l-6.217 1.724c-0.283 0.078-0.519 0.144-0.523 0.145s-0.24-0.063-0.523-0.141l-6.224-1.727c-0.283-0.079-0.537-0.383-0.563-0.676l-0.401-4.497c-0.026-0.293 0.193-0.533 0.487-0.533h0.568c0.294 0 0.775 0 1.069 0h0.847c0.294 0 0.556 0.24 0.582 0.533l0.157 1.76c0.026 0.293 0.28 0.595 0.564 0.672l2.911 0.786c0.284 0.077 0.517 0.139 0.518 0.139s0.235-0.063 0.518-0.14l2.916-0.788c0.284-0.077 0.538-0.379 0.564-0.672l0.316-3.527c0.026-0.293-0.193-0.533-0.487-0.533h-3.28c-0.294 0-0.537 0-0.54 0s-0.246 0-0.541 0h-6.843c-0.294 0-0.556-0.24-0.582-0.533l-0.776-8.695c-0.026-0.293-0.067-0.746-0.090-1.008s0.198-0.475 0.492-0.475h7.799c0.294 0 0.537 0 0.541 0s0.246 0 0.54 0h7.79c0.294 0 0.516 0.214 0.492 0.475z"></path>
</symbol>
<symbol id="icon-js" viewBox="0 0 32 32">
<path d="M28.975 1.488c-0.122-0.132-0.292-0.208-0.472-0.208h-25.006c-0.18 0-0.351 0.076-0.472 0.208s-0.181 0.31-0.165 0.489l2.253 25.233c0.024 0.264 0.207 0.486 0.462 0.559l10.246 2.927c0.057 0.016 0.116 0.024 0.175 0.024s0.118-0.008 0.175-0.024l10.255-2.927c0.255-0.073 0.438-0.295 0.462-0.559l2.252-25.233c0.016-0.179-0.044-0.356-0.165-0.489zM7.68 18.563l4.48 1.243v-12.765h2.56v16.64l-7.040-1.953v-3.165zM24.355 14.080l-0.675 7.84-6.4 1.76v-2.945l4.32-1.187 0.16-2.4-4.48 0.772v-10.88h7.68l-0.221 2.56h-4.899v5.12l4.515-0.64z"></path>
</symbol>
<symbol id="icon-sass" viewBox="0 0 32 32">
<path d="M16 0c8.836 0 16 7.164 16 16s-7.164 16-16 16-16-7.164-16-16 7.164-16 16-16zM12.82 21.331c0.233 0.86 0.208 1.664-0.032 2.389l-0.087 0.24c-0.032 0.081-0.069 0.16-0.104 0.235-0.187 0.387-0.435 0.747-0.74 1.080-0.931 1.012-2.229 1.396-2.787 1.073-0.6-0.349-0.301-1.78 0.779-2.92 1.161-1.224 2.827-2.012 2.827-2.012v-0.004l0.144-0.081zM26.035 6.849c-0.723-2.844-5.436-3.779-9.896-2.193-2.652 0.943-5.525 2.424-7.591 4.356-2.457 2.295-2.848 4.295-2.687 5.131 0.569 2.948 4.609 4.876 6.271 6.307v0.008c-0.489 0.24-4.075 2.039-4.915 3.9-0.9 1.96 0.14 3.361 0.82 3.54 2.1 0.581 4.26-0.48 5.42-2.199 1.12-1.681 1.021-3.841 0.539-4.901 0.661-0.18 1.44-0.26 2.44-0.139 2.801 0.32 3.361 2.080 3.24 2.8-0.12 0.719-0.697 1.139-0.899 1.259-0.2 0.121-0.26 0.16-0.241 0.241 0.020 0.12 0.121 0.12 0.28 0.1 0.22-0.040 1.461-0.6 1.521-1.961 0.060-1.72-1.581-3.639-4.5-3.6-1.2 0.021-1.961 0.121-2.5 0.341-0.040-0.060-0.081-0.1-0.14-0.14-1.8-1.94-5.14-3.3-5-5.88 0.040-0.94 0.38-3.419 6.4-6.419 4.94-2.461 8.881-1.78 9.561-0.28 0.977 2.139-2.101 6.12-7.241 6.699-1.96 0.22-2.98-0.539-3.241-0.82-0.279-0.3-0.319-0.32-0.419-0.259-0.16 0.080-0.060 0.34 0 0.5 0.16 0.4 0.78 1.1 1.861 1.46 0.939 0.3 3.24 0.479 6-0.6 3.099-1.199 5.519-4.54 4.819-7.34l0.097 0.089z"></path>
</symbol>
</defs>
</svg>
